<svg width="36" height="21" viewBox="0 0 36 21" fill="none" xmlns="http://www.w3.org/2000/svg">
<path d="M16.8785 20.504L0.427827 2.68341C0.153201 2.38606 0 1.99102 0 1.58021C0 1.1694 0.153201 0.774361 0.427827 0.477015L0.446416 0.457827C0.579549 0.313181 0.7398 0.198002 0.917421 0.119295C1.09504 0.0405884 1.28632 0 1.47962 0C1.67291 0 1.86419 0.0405884 2.04181 0.119295C2.21943 0.198002 2.37968 0.313181 2.51282 0.457827L18.0031 17.2392L33.4872 0.457827C33.6203 0.313181 33.7806 0.198002 33.9582 0.119295C34.1358 0.0405884 34.3271 0 34.5204 0C34.7137 0 34.905 0.0405884 35.0826 0.119295C35.2602 0.198002 35.4204 0.313181 35.5536 0.457827L35.5722 0.477015C35.8468 0.774361 36 1.1694 36 1.58021C36 1.99102 35.8468 2.38606 35.5722 2.68341L19.1215 20.504C18.9768 20.6608 18.8028 20.7855 18.61 20.8708C18.4173 20.956 18.2097 21 18 21C17.7903 21 17.5827 20.956 17.3899 20.8708C17.1972 20.7855 17.0232 20.6608 16.8785 20.504Z" fill="white"/>
</svg>
