<svg width="373" height="654" viewBox="0 0 373 654" fill="none" xmlns="http://www.w3.org/2000/svg">
<path d="M0.480799 792.113C0.480799 792.113 45.1821 730.714 133.777 756.37C222.371 782.027 268.285 800.446 304.971 741.794C330.115 702.229 307.62 662.52 292.578 649.982C277.536 637.443 266.732 630.91 226.136 608.999C189.034 589.023 139.377 544.163 159.79 475.887C159.79 475.887 179.047 406.204 183.11 392.686C187.172 379.168 208.121 294.259 157.836 258.343C107.551 222.428 43.0182 241.991 35.2556 189.728C29.2933 152.935 43.414 163.028 37.084 99.7095C37.084 99.7095 28.4341 29.2636 -41.8358 36.2886L-44.9348 36.5984C-115.205 43.6234 -109.738 114.388 -109.738 114.388C-103.047 172.848 -91.0452 171.056 -90.0411 202.255C-87.3038 255.02 -154.433 248.619 -196.612 293.778C-238.792 338.937 -201.449 418.019 -194.79 430.465C-188.132 442.911 -170.084 478.75 -155.462 507.403C-148.829 520.444 -142.112 551.24 -147.323 576.969C-153.555 607.707 -174.033 633.863 -194.227 651.024C-229.388 680.931 -242.152 690.328 -254.406 705.68C-266.584 720.94 -278.964 763.796 -246.485 797.6C-214.392 834.319 -171.401 829.429 -124.858 808.45C-124.858 808.45 -111.155 801.666 -98.1569 803.92C-98.1569 803.92 -90.6525 805.369 -97.5205 810.285C-104.397 815.117 -121.391 827.052 -134.407 834.782C-139.114 837.621 -165.84 854.589 -199.166 858.851C-244.77 864.679 -300.014 841.779 -307.65 774.7C-307.65 774.7 -321.092 719.791 -224.906 646.224C-224.906 646.224 -174.921 608.912 -170.179 579.339C-165.438 549.766 -179.851 514.747 -188.427 495.81C-208.141 451.764 -247.103 414.04 -252.478 360.269C-252.478 360.269 -263.423 279.563 -143.36 240.068C-143.36 240.068 -98.9532 227.339 -102.646 203.092C-106.582 177.262 -134.144 141.021 -138.415 98.3059C-142.685 55.5911 -106.058 7.34974 -49.7748 1.72302L-37.8816 0.534043C18.4851 -5.10104 63.6694 34.7924 67.9396 77.5071C72.2099 120.222 50.5248 161.386 53.623 187.3C56.5286 211.287 100.851 215.485 100.851 215.485C226.357 230.43 231.606 311.705 231.606 311.705C236.989 365.559 206.259 410.166 195.654 457.244C190.997 477.504 183.065 509.004 193.567 537.053C204.069 565.103 244.973 590.959 261.104 597.467C384.464 646.802 372.503 709.073 371.129 727.482C365.608 781.411 315.136 811.327 269.331 815.99C231.307 819.792 213.568 813.275 205.544 810.863C196.214 808.074 139.622 790.299 109.629 785.6C67.0909 778.94 9.40877 800.187 1.65307 802.147C1.65307 802.147 -9.40262 806.636 0.304926 792.046" fill="url(#paint0_linear_1_488)"/>
<defs>
<linearGradient id="paint0_linear_1_488" x1="-41.8779" y1="0.933553" x2="41.8781" y2="838.729" gradientUnits="userSpaceOnUse">
<stop stop-color="#A66D35" stop-opacity="0.5"/>
<stop offset="0.275" stop-color="#A66D35" stop-opacity="0.45"/>
<stop offset="1" stop-color="#A66D35" stop-opacity="0.2"/>
</linearGradient>
</defs>
</svg>
