<svg width="152" height="214" viewBox="0 0 152 214" fill="none" xmlns="http://www.w3.org/2000/svg">
<path d="M67.8664 173.269C67.8664 173.269 79.1223 160.867 98.1694 168.385C117.216 175.904 126.974 180.916 136.395 168.938C142.837 160.867 138.736 151.727 135.683 148.669C132.63 145.61 130.383 143.951 121.88 138.294C114.107 133.135 104.106 122.281 110.137 107.853C110.137 107.853 115.943 93.0929 117.141 90.2368C118.34 87.3806 124.858 69.3406 114.519 60.422C104.181 51.5033 89.4605 54.3595 88.8987 42.8058C88.393 34.6611 91.2959 37.1672 91.2959 23.2364C91.2959 23.2364 90.9401 7.70246 75.2268 7.70246H74.5338C58.8205 7.70246 58.4646 23.2364 58.4646 23.2364C58.6519 36.1168 61.3488 35.9878 60.8806 42.8058C60.3188 54.3595 45.598 51.5033 35.2598 60.422C24.9216 69.3406 31.4392 87.3806 32.6378 90.2368C33.8364 93.0929 37.039 101.293 39.6423 107.853C40.8222 110.838 41.6276 117.693 39.9045 123.184C37.8444 129.744 32.7314 134.996 27.8807 138.294C19.4341 144.043 16.4001 145.812 13.3473 148.89C10.3132 151.949 6.6237 161.015 13.0664 169.086C19.3592 177.783 28.9857 177.654 39.7547 174.098C39.7547 174.098 42.9386 172.918 45.7666 173.692C45.7666 173.692 47.396 174.172 45.7666 175.093C44.1372 175.996 40.1105 178.225 37.0578 179.626C35.9528 180.142 29.6599 183.256 22.1872 183.459C11.9614 183.735 0.237224 177.544 0.031209 162.765C0.031209 162.765 -1.72928 150.511 21.1946 136.581C21.1946 136.581 33.0873 129.541 34.7916 123.203C36.4959 116.864 34.0799 108.922 32.6003 104.61C29.2105 94.5855 21.4193 85.5195 21.4193 73.6894C21.4193 73.6894 20.7826 55.8705 48.2388 49.8817C48.2388 49.8817 58.3522 48.0759 58.0713 42.7137C57.7717 37.0013 52.4714 28.5065 52.4714 19.1087C52.4714 9.711 61.6485 0 74.2341 0H76.8936C89.498 0 98.6189 9.67415 98.6189 19.0719C98.6189 28.4696 92.9066 36.9645 93.019 42.6768C93.1314 47.9653 102.852 49.8449 102.852 49.8449C130.308 55.8337 129.671 73.6525 129.671 73.6525C129.671 85.501 121.88 94.5487 118.49 104.573C117.01 108.885 114.557 115.574 116.261 121.913C117.966 128.252 126.45 134.775 129.877 136.544C156.097 149.977 152.07 163.281 151.359 167.261C148.943 178.889 137.106 184.306 126.862 184.325C118.359 184.325 114.576 182.519 112.853 181.819C110.849 181.008 98.7125 175.904 92.1762 174.227C82.9055 171.85 69.6644 175.222 67.9039 175.48C67.9039 175.48 65.3568 176.217 67.8289 173.25" fill="#EC9B4B"/>
<path d="M76.856 153.367H78.3917C79.197 153.367 79.1034 152.777 79.1034 152.777V34.679C79.1596 25.1892 80.1897 25.9631 81.0512 23.5676C81.894 21.1721 80.0211 21.0615 80.0211 21.0615H70.4508C70.4508 21.0615 68.5592 21.1721 69.4207 23.5676C70.2822 25.9631 71.3123 25.1707 71.3685 34.679V152.777C71.3685 152.777 71.2748 153.367 72.0802 153.367H76.856Z" fill="#EC9B4B"/>
<path d="M10.4908 214V201.701H15.8031C17.139 201.701 18.1083 201.813 18.7109 202.037C19.3191 202.255 19.8052 202.646 20.169 203.211C20.5328 203.776 20.7147 204.422 20.7147 205.149C20.7147 206.072 20.439 206.836 19.8876 207.44C19.3362 208.038 18.5119 208.416 17.4147 208.572C17.9605 208.886 18.4096 209.23 18.762 209.604C19.1201 209.979 19.6005 210.645 20.2031 211.601L21.7294 214H18.7109L16.8861 211.324C16.238 210.368 15.7946 209.766 15.5558 209.52C15.3171 209.269 15.0641 209.098 14.7969 209.009C14.5298 208.913 14.1062 208.866 13.5264 208.866H13.0148V214H10.4908ZM13.0148 206.903H14.8822C16.0931 206.903 16.8491 206.852 17.1504 206.752C17.4517 206.651 17.6876 206.478 17.8581 206.232C18.0287 205.985 18.114 205.678 18.114 205.309C18.114 204.895 18.0003 204.562 17.7729 204.31C17.5512 204.053 17.2357 203.891 16.8264 203.824C16.6217 203.796 16.0078 203.782 14.9845 203.782H13.0148V206.903Z" fill="#EC9B4B"/>
<path d="M23.1023 214V201.701H32.3712V203.782H25.6263V206.508H31.9022V208.581H25.6263V211.928H32.6099V214H23.1023Z" fill="#EC9B4B"/>
<path d="M34.7502 214V201.701H38.8006C40.3354 201.701 41.3359 201.763 41.8021 201.886C42.5183 202.07 43.1181 202.473 43.6013 203.094C44.0845 203.709 44.3261 204.506 44.3261 205.485C44.3261 206.24 44.1868 206.875 43.9083 207.389C43.6297 207.904 43.2744 208.309 42.8424 208.606C42.416 208.897 41.9811 209.09 41.5377 209.185C40.9352 209.302 40.0626 209.361 38.9199 209.361H37.2742V214H34.7502ZM37.2742 203.782V207.272H38.6556C39.6504 207.272 40.3155 207.208 40.6509 207.079C40.9863 206.95 41.2478 206.749 41.4354 206.475C41.6287 206.201 41.7253 205.882 41.7253 205.518C41.7253 205.071 41.5917 204.702 41.3246 204.411C41.0574 204.12 40.7191 203.938 40.3098 203.866C40.0086 203.81 39.4031 203.782 38.4936 203.782H37.2742Z" fill="#EC9B4B"/>
<path d="M56.3748 214H53.6291L52.5376 211.207H47.5408L46.509 214H43.8315L48.7005 201.701H51.3694L56.3748 214ZM51.7276 209.134L50.0051 204.57L48.3167 209.134H51.7276Z" fill="#EC9B4B"/>
<path d="M61.943 214V201.701H67.2553C68.5912 201.701 69.5604 201.813 70.163 202.037C70.7713 202.255 71.2573 202.646 71.6211 203.211C71.985 203.776 72.1669 204.422 72.1669 205.149C72.1669 206.072 71.8912 206.836 71.3397 207.44C70.7883 208.038 69.9641 208.416 68.8669 208.572C69.4126 208.886 69.8617 209.23 70.2142 209.604C70.5723 209.979 71.0527 210.645 71.6552 211.601L73.1816 214H70.163L68.3382 211.324C67.6902 210.368 67.2468 209.766 67.008 209.52C66.7693 209.269 66.5163 209.098 66.2491 209.009C65.9819 208.913 65.5584 208.866 64.9786 208.866H64.467V214H61.943ZM64.467 206.903H66.3344C67.5452 206.903 68.3013 206.852 68.6026 206.752C68.9039 206.651 69.1398 206.478 69.3103 206.232C69.4809 205.985 69.5661 205.678 69.5661 205.309C69.5661 204.895 69.4524 204.562 69.225 204.31C69.0033 204.053 68.6878 203.891 68.2785 203.824C68.0739 203.796 67.4599 203.782 66.4367 203.782H64.467V206.903Z" fill="#EC9B4B"/>
<path d="M74.5544 214V201.701H83.8233V203.782H77.0785V206.508H83.3544V208.581H77.0785V211.928H84.0621V214H74.5544Z" fill="#EC9B4B"/>
<path d="M89.0163 214V203.782H85.307V201.701H95.2411V203.782H91.5403V214H89.0163Z" fill="#EC9B4B"/>
<path d="M96.8868 214V201.701H102.199C103.535 201.701 104.504 201.813 105.107 202.037C105.715 202.255 106.201 202.646 106.565 203.211C106.929 203.776 107.111 204.422 107.111 205.149C107.111 206.072 106.835 206.836 106.284 207.44C105.732 208.038 104.908 208.416 103.811 208.572C104.356 208.886 104.806 209.23 105.158 209.604C105.516 209.979 105.996 210.645 106.599 211.601L108.125 214H105.107L103.282 211.324C102.634 210.368 102.191 209.766 101.952 209.52C101.713 209.269 101.46 209.098 101.193 209.009C100.926 208.913 100.502 208.866 99.9224 208.866H99.4108V214H96.8868ZM99.4108 206.903H101.278C102.489 206.903 103.245 206.852 103.546 206.752C103.848 206.651 104.084 206.478 104.254 206.232C104.425 205.985 104.51 205.678 104.51 205.309C104.51 204.895 104.396 204.562 104.169 204.31C103.947 204.053 103.632 203.891 103.222 203.824C103.018 203.796 102.404 203.782 101.381 203.782H99.4108V206.903Z" fill="#EC9B4B"/>
<path d="M109.498 214V201.701H118.767V203.782H112.022V206.508H118.298V208.581H112.022V211.928H119.006V214H109.498Z" fill="#EC9B4B"/>
<path d="M132.419 214H129.673L128.582 211.207H123.585L122.553 214H119.876L124.745 201.701H127.414L132.419 214ZM127.772 209.134L126.049 204.57L124.361 209.134H127.772Z" fill="#EC9B4B"/>
<path d="M135.284 214V203.782H131.575V201.701H141.509V203.782H137.808V214H135.284Z" fill="#EC9B4B"/>
</svg>
